<?xml version="1.0" encoding="utf-8"?>
<!-- Generator: Adobe Illustrator 16.0.0, SVG Export Plug-In . SVG Version: 6.00 Build 0)  -->
<!DOCTYPE svg PUBLIC "-//W3C//DTD SVG 1.0//EN" "http://www.w3.org/TR/2001/REC-SVG-20010904/DTD/svg10.dtd">
<svg version="1.0" id="Layer_1" xmlns="http://www.w3.org/2000/svg" xmlns:xlink="http://www.w3.org/1999/xlink" x="0px" y="0px"
	 width="100px" height="100px" viewBox="0 0 100 100" enable-background="new 0 0 100 100" xml:space="preserve">
<path fill="#FFB74D" d="M23.333,10C15.97,10.003,10,15.973,10,23.333c0,7.366,5.97,13.336,13.333,13.333
	c7.363,0.002,13.333-5.967,13.333-13.333C36.667,15.97,30.697,10.003,23.333,10z M23.333,30c-3.682,0.003-6.667-2.982-6.667-6.667
	c0-3.679,2.985-6.664,6.667-6.667C27.015,16.669,30,19.652,30,23.333C30,27.018,27.015,30.003,23.333,30z"/>
<path fill="#263238" d="M76.667,63.333c-5.746,0-10.946-2.33-14.714-6.094l-0.501-0.501c2.446-4.157,2.446-9.316,0-13.478l0.501-0.5
	c3.768-3.763,8.972-6.094,14.714-6.094C84.029,36.667,90,30.698,90,23.333C90,15.969,84.029,10,76.667,10
	s-13.334,5.97-13.334,13.333c0,5.745-2.33,10.947-6.095,14.713l-0.5,0.501c-5.11-3.008-11.779-2.363-16.167,2.023
	c-4.388,4.388-5.031,11.056-2.023,16.166l-0.501,0.502c-3.766,3.764-8.971,6.094-14.713,6.094C15.97,63.333,10,69.305,10,76.667
	C10,84.03,15.97,90,23.333,90s13.333-5.97,13.333-13.333c0-5.746,2.331-10.947,6.094-14.714l0.501-0.501
	c4.159,2.446,9.319,2.446,13.477,0l0.5,0.501c3.765,3.767,6.095,8.972,6.095,14.714C63.333,84.03,69.305,90,76.667,90
	S90,84.03,90,76.667C90,69.305,84.029,63.333,76.667,63.333z M76.667,16.667c3.675,0,6.666,2.992,6.666,6.667
	c0,3.675-2.991,6.667-6.666,6.667C72.991,30,70,27.008,70,23.333C70,19.659,72.991,16.667,76.667,16.667z M23.333,83.333
	c-3.675,0-6.667-2.991-6.667-6.666c0-3.676,2.992-6.667,6.667-6.667S30,72.991,30,76.667C30,80.342,27.008,83.333,23.333,83.333z
	 M50,56.667c-3.682,0-6.667-2.985-6.667-6.667c0-3.682,2.985-6.667,6.667-6.667c3.682,0,6.667,2.985,6.667,6.667
	C56.667,53.682,53.682,56.667,50,56.667z M76.667,83.333c-3.676,0-6.667-2.991-6.667-6.666C70,72.991,72.991,70,76.667,70
	c3.675,0,6.666,2.991,6.666,6.667C83.333,80.342,80.342,83.333,76.667,83.333z"/>
</svg>
