<?xml version="1.0" encoding="utf-8"?>
<!-- Generator: Adobe Illustrator 16.0.0, SVG Export Plug-In . SVG Version: 6.00 Build 0)  -->
<!DOCTYPE svg PUBLIC "-//W3C//DTD SVG 1.0//EN" "http://www.w3.org/TR/2001/REC-SVG-20010904/DTD/svg10.dtd">
<svg version="1.0" id="Layer_1" xmlns="http://www.w3.org/2000/svg" xmlns:xlink="http://www.w3.org/1999/xlink" x="0px" y="0px"
	 width="100px" height="100px" viewBox="0 0 100 100" enable-background="new 0 0 100 100" xml:space="preserve">
<path fill="#263238" d="M23.333,70.611V56.055C27.21,54.678,30,51.016,30,46.667c0-5.524-4.477-10-10-10c-5.524,0-10,4.476-10,10
	c0,4.349,2.793,8.011,6.667,9.388v14.559C12.793,71.989,10,75.65,10,80c0,5.523,4.476,10,10,10c5.523,0,10-4.477,10-10
	C30,75.65,27.21,71.989,23.333,70.611z M20,43.333c1.843,0,3.333,1.491,3.333,3.333S21.843,50,20,50
	c-1.839,0-3.333-1.491-3.333-3.333C16.667,44.824,18.161,43.333,20,43.333z M20,83.333c-1.839,0-3.333-1.49-3.333-3.333
	s1.494-3.333,3.333-3.333c1.843,0,3.333,1.49,3.333,3.333S21.843,83.333,20,83.333z"/>
<path fill="#8BC34A" d="M80,70c-5.523,0-10,4.477-10,10s4.477,10,10,10s10-4.477,10-10S85.523,70,80,70z M80,83.333
	c-1.843,0-3.333-1.49-3.333-3.333s1.49-3.333,3.333-3.333s3.333,1.49,3.333,3.333S81.843,83.333,80,83.333z"/>
<path fill="#8BC34A" d="M46.667,36.667c-1.54,0-2.982,0.377-4.287,1l-13.379-13.38C29.622,22.983,30,21.542,30,20
	c0-5.524-4.477-10-10-10c-5.524,0-10,4.476-10,10s4.476,10,10,10c1.543,0,2.984-0.377,4.287-1l13.379,13.379
	c-0.623,1.306-1,2.745-1,4.288c0,5.522,4.476,10,10,10c5.522,0,10-4.478,10-10C56.667,41.143,52.189,36.667,46.667,36.667z
	 M20,23.333c-1.839,0-3.333-1.493-3.333-3.333s1.494-3.333,3.333-3.333c1.843,0,3.333,1.493,3.333,3.333S21.843,23.333,20,23.333z
	 M46.667,50c-1.84,0-3.334-1.491-3.334-3.333c0-1.843,1.494-3.333,3.334-3.333c1.842,0,3.333,1.492,3.333,3.333S48.509,50,46.667,50
	z"/>
<path fill="#263238" d="M80,36.667c-5.523,0-10,4.476-10,10c0,1.543,0.378,2.98,0.999,4.287L50.954,70.999
	C49.65,70.378,48.21,70,46.667,70c-5.524,0-10,4.477-10,10s4.476,10,10,10c5.522,0,10-4.477,10-10c0-1.54-0.378-2.98-1-4.287
	l20.046-20.046c1.307,0.622,2.747,1,4.287,1c5.523,0,10-4.478,10-10C90,41.143,85.523,36.667,80,36.667z M46.667,83.333
	c-1.84,0-3.334-1.49-3.334-3.333s1.494-3.333,3.334-3.333C48.509,76.667,50,78.157,50,80S48.509,83.333,46.667,83.333z M80,50
	c-1.843,0-3.333-1.491-3.333-3.333c0-1.843,1.49-3.333,3.333-3.333s3.333,1.492,3.333,3.333S81.843,50,80,50z"/>
<path fill="#263238" d="M80,10c-4.35,0-8.012,2.792-9.389,6.667H56.055C54.678,12.792,51.016,10,46.667,10c-5.524,0-10,4.476-10,10
	s4.476,10,10,10c4.349,0,8.011-2.792,9.388-6.667h14.559C71.988,27.208,75.65,30,80,30c5.523,0,10-4.476,10-10S85.523,10,80,10z
	 M46.667,23.333c-1.84,0-3.334-1.493-3.334-3.333c0-1.841,1.494-3.333,3.334-3.333C48.509,16.667,50,18.159,50,20
	C50,21.841,48.509,23.333,46.667,23.333z M80,23.333c-1.843,0-3.333-1.493-3.333-3.333c0-1.841,1.49-3.333,3.333-3.333
	s3.333,1.492,3.333,3.333C83.333,21.841,81.843,23.333,80,23.333z"/>
</svg>
